<svg width="334" height="152" viewBox="0 0 334 152" fill="none" xmlns="http://www.w3.org/2000/svg">
<path d="M246.967 23H314.467L256.967 96.5H324.967" stroke="#060E21" stroke-width="10"/>
<path fill-rule="evenodd" clip-rule="evenodd" d="M157.967 23.0002C157.967 28.0002 157.967 28.0002 157.968 28.0002H157.969H157.973H157.991L158.062 28.0002L158.34 28.0002L159.412 28.0001L163.391 28.0001L176.81 28C187.471 28 200.611 28 210.528 28.0002C213.839 28.0002 216.249 29.3916 217.973 31.571C219.789 33.8665 220.89 37.1407 220.963 40.6064C221.037 44.0754 220.075 47.2624 218.365 49.4639C216.768 51.5189 214.324 53 210.529 53L176.252 53L163.182 53L159.351 53H158.323H158.058H157.99H157.973H157.969H157.968C157.967 53 157.967 53 157.967 58C157.967 63 157.967 63 157.968 63H157.968C157.968 63.0002 157.968 63.0002 157.968 63.0002H157.969H157.974H157.993H158.069L158.367 63.0002L159.519 63.0002L163.79 63.0001L178.196 63C189.64 63 203.747 63 214.393 63.0002C218.046 63.0002 220.733 64.5589 222.657 67.0182C224.672 69.5954 225.882 73.2519 225.963 77.1053C226.044 80.9623 224.987 84.5328 223.079 87.0167C221.286 89.3504 218.558 91 214.393 91L177.597 91L163.565 91H159.453L158.35 91H158.064H157.992H157.973H157.969H157.968C157.967 91 157.967 91 157.967 96C157.967 101 157.967 101 157.968 101H157.969H157.973H157.992H158.064H158.35L159.453 101H163.565L177.597 101L214.393 101C221.674 101 227.329 97.8996 231.01 93.1084C234.574 88.4674 236.079 82.5381 235.961 76.8952C235.842 71.2486 234.091 65.4052 230.534 60.8574C229.166 59.1088 227.539 57.5673 225.671 56.3233C225.873 56.0867 226.07 55.8451 226.262 55.5987C229.649 51.2378 231.073 45.6749 230.961 40.394C230.849 35.1098 229.191 29.6341 225.816 25.3671C222.349 20.9839 217.135 18.0003 210.529 18.0002C200.611 18 187.471 18 176.81 18L163.391 18.0001L159.412 18.0001L158.34 18.0002L158.062 18.0002L157.991 18.0002H157.973L157.969 18.0002H157.968C157.967 18.0002 157.967 18.0002 157.967 23.0002Z" fill="#060E21"/>
<path d="M172.511 129.276C171.637 129.276 170.848 129.153 170.142 128.908C169.452 128.663 168.854 128.272 168.348 127.735C167.858 127.198 167.474 126.501 167.198 125.642C166.938 124.783 166.807 123.748 166.807 122.537V113.958H169.475V122.744C169.475 123.802 169.598 124.638 169.843 125.251C170.104 125.864 170.464 126.301 170.924 126.562C171.384 126.823 171.913 126.953 172.511 126.953C173.125 126.953 173.661 126.823 174.121 126.562C174.597 126.301 174.965 125.864 175.225 125.251C175.501 124.638 175.639 123.802 175.639 122.744V113.958H178.192V122.537C178.192 123.748 178.062 124.783 177.801 125.642C177.541 126.501 177.157 127.198 176.651 127.735C176.161 128.272 175.563 128.663 174.857 128.908C174.167 129.153 173.385 129.276 172.511 129.276ZM180.113 129L184.391 121.249L180.389 113.958H183.356L185.012 117.293C185.211 117.63 185.395 117.983 185.564 118.351C185.733 118.719 185.932 119.133 186.162 119.593H186.254C186.438 119.133 186.607 118.719 186.76 118.351C186.929 117.983 187.097 117.63 187.266 117.293L188.853 113.958H191.682L187.68 121.364L191.958 129H188.991L187.151 125.458C186.952 125.059 186.752 124.668 186.553 124.285C186.369 123.886 186.162 123.457 185.932 122.997H185.84C185.656 123.457 185.472 123.886 185.288 124.285C185.104 124.668 184.92 125.059 184.736 125.458L182.942 129H180.113ZM198.771 129V113.958H202.796C204.329 113.958 205.64 114.234 206.729 114.786C207.817 115.338 208.653 116.166 209.236 117.27C209.818 118.374 210.11 119.754 210.11 121.41C210.11 123.066 209.818 124.461 209.236 125.596C208.668 126.715 207.848 127.566 206.775 128.149C205.701 128.716 204.421 129 202.934 129H198.771ZM201.439 126.838H202.612C203.624 126.838 204.482 126.646 205.188 126.263C205.908 125.864 206.453 125.266 206.821 124.469C207.189 123.672 207.373 122.652 207.373 121.41C207.373 120.183 207.189 119.179 206.821 118.397C206.453 117.615 205.908 117.04 205.188 116.672C204.482 116.304 203.624 116.12 202.612 116.12H201.439V126.838ZM213.146 129V113.958H222.208V116.212H215.814V120.053H221.219V122.307H215.814V126.746H222.438V129H213.146ZM228.121 129L223.521 113.958H226.35L228.374 121.525C228.527 122.092 228.673 122.644 228.811 123.181C228.949 123.702 229.087 124.231 229.225 124.768C229.378 125.289 229.539 125.834 229.708 126.401H229.8C229.953 125.834 230.099 125.289 230.237 124.768C230.375 124.231 230.513 123.702 230.651 123.181C230.804 122.644 230.957 122.092 231.111 121.525L233.296 113.958H236.033L231.272 129H228.121ZM237.853 129V113.958H246.915V116.212H240.521V120.053H245.926V122.307H240.521V126.746H247.145V129H237.853ZM250.229 129V113.958H252.897V126.746H259.153V129H250.229ZM266.897 129.276C265.594 129.276 264.444 128.962 263.447 128.333C262.45 127.689 261.668 126.784 261.101 125.619C260.549 124.438 260.273 123.035 260.273 121.41C260.273 119.785 260.549 118.397 261.101 117.247C261.668 116.097 262.45 115.215 263.447 114.602C264.444 113.989 265.594 113.682 266.897 113.682C268.216 113.682 269.373 113.989 270.37 114.602C271.367 115.215 272.141 116.097 272.693 117.247C273.26 118.397 273.544 119.785 273.544 121.41C273.544 123.035 273.26 124.438 272.693 125.619C272.141 126.784 271.367 127.689 270.37 128.333C269.373 128.962 268.216 129.276 266.897 129.276ZM266.897 126.953C267.694 126.953 268.377 126.731 268.944 126.286C269.527 125.826 269.979 125.182 270.301 124.354C270.623 123.511 270.784 122.529 270.784 121.41C270.784 120.291 270.623 119.332 270.301 118.535C269.979 117.722 269.527 117.101 268.944 116.672C268.377 116.227 267.694 116.005 266.897 116.005C266.115 116.005 265.433 116.227 264.85 116.672C264.267 117.101 263.815 117.722 263.493 118.535C263.171 119.332 263.01 120.291 263.01 121.41C263.01 122.529 263.171 123.511 263.493 124.354C263.815 125.182 264.267 125.826 264.85 126.286C265.433 126.731 266.115 126.953 266.897 126.953ZM276.553 129V113.958H281.291C282.41 113.958 283.407 114.104 284.281 114.395C285.155 114.686 285.845 115.169 286.351 115.844C286.857 116.519 287.11 117.439 287.11 118.604C287.11 119.708 286.857 120.62 286.351 121.341C285.86 122.062 285.178 122.598 284.304 122.951C283.445 123.304 282.472 123.48 281.383 123.48H279.221V129H276.553ZM279.221 121.341H281.176C282.295 121.341 283.123 121.111 283.66 120.651C284.212 120.191 284.488 119.509 284.488 118.604C284.488 117.653 284.197 117.002 283.614 116.649C283.047 116.281 282.203 116.097 281.084 116.097H279.221V121.341ZM289.94 129V113.958H299.002V116.212H292.608V120.053H298.013V122.307H292.608V126.746H299.232V129H289.94ZM302.316 129V113.958H307.399C308.441 113.958 309.377 114.096 310.205 114.372C311.033 114.648 311.692 115.116 312.183 115.775C312.673 116.419 312.919 117.301 312.919 118.42C312.919 119.493 312.673 120.375 312.183 121.065C311.692 121.755 311.033 122.269 310.205 122.606C309.377 122.943 308.441 123.112 307.399 123.112H304.984V129H302.316ZM304.984 120.996H307.123C308.15 120.996 308.932 120.781 309.469 120.352C310.021 119.923 310.297 119.279 310.297 118.42C310.297 117.561 310.021 116.963 309.469 116.626C308.932 116.273 308.15 116.097 307.123 116.097H304.984V120.996ZM310.527 129L306.893 122.399L308.825 120.812L313.517 129H310.527Z" fill="#060E21"/>
<path d="M49.9674 47.4997C76.4674 -18.5004 138.467 41.0001 108.467 101C114.967 42.9998 72.9674 20.9997 49.9674 47.4997Z" fill="#61B4CA" stroke="#61B4CA"/>
<path d="M67.6693 129.224C-2.87733 138.248 18.8647 55.1123 85.8774 52.0689C32.0633 74.6583 33.3204 122.055 67.6693 129.224Z" fill="#FCB51F" stroke="#FCB51F"/>
<path d="M130.847 71.7084C175.994 126.663 94.0203 152.444 55.8176 97.3034C103.559 130.874 143.035 104.613 130.847 71.7084Z" fill="#133157" stroke="#133157"/>
</svg>
