<svg width="334" height="152" viewBox="0 0 334 152" fill="none" xmlns="http://www.w3.org/2000/svg">
<path d="M246.967 24H314.467L256.967 97.5H324.967" stroke="#FCB51F" stroke-width="10"/>
<path fill-rule="evenodd" clip-rule="evenodd" d="M157.967 24.0002C157.967 29.0002 157.967 29.0002 157.968 29.0002H157.969H157.973H157.991L158.062 29.0002L158.34 29.0002L159.412 29.0001L163.391 29.0001L176.81 29C187.471 29 200.611 29 210.528 29.0002C213.839 29.0002 216.249 30.3916 217.973 32.571C219.789 34.8665 220.89 38.1407 220.963 41.6064C221.037 45.0754 220.075 48.2624 218.365 50.4639C216.768 52.5189 214.324 54 210.529 54L176.252 54L163.182 54L159.351 54H158.323H158.058H157.99H157.973H157.969H157.968C157.967 54 157.967 54 157.967 59C157.967 64 157.967 64 157.968 64H157.968C157.968 64.0002 157.968 64.0002 157.968 64.0002H157.969H157.974H157.993H158.069L158.367 64.0002L159.519 64.0002L163.79 64.0001L178.196 64C189.64 64 203.747 64 214.393 64.0002C218.046 64.0002 220.733 65.5589 222.657 68.0182C224.672 70.5954 225.882 74.2519 225.963 78.1053C226.044 81.9623 224.987 85.5328 223.079 88.0167C221.286 90.3504 218.558 92 214.393 92L177.597 92L163.565 92H159.453L158.35 92H158.064H157.992H157.973H157.969H157.968C157.967 92 157.967 92 157.967 97C157.967 102 157.967 102 157.968 102H157.969H157.973H157.992H158.064H158.35L159.453 102H163.565L177.597 102L214.393 102C221.674 102 227.329 98.8996 231.01 94.1084C234.574 89.4674 236.079 83.5381 235.961 77.8952C235.842 72.2486 234.091 66.4052 230.534 61.8574C229.166 60.1088 227.539 58.5673 225.671 57.3233C225.873 57.0867 226.07 56.8451 226.262 56.5987C229.649 52.2378 231.073 46.6749 230.961 41.394C230.849 36.1098 229.191 30.6341 225.816 26.3671C222.349 21.9839 217.135 19.0003 210.529 19.0002C200.611 19 187.471 19 176.81 19L163.391 19.0001L159.412 19.0001L158.34 19.0002L158.062 19.0002L157.991 19.0002H157.973L157.969 19.0002H157.968C157.967 19.0002 157.967 19.0002 157.967 24.0002Z" fill="#FCB51F"/>
<path d="M172.511 130.276C171.637 130.276 170.848 130.153 170.142 129.908C169.452 129.663 168.854 129.272 168.348 128.735C167.858 128.198 167.474 127.501 167.198 126.642C166.938 125.783 166.807 124.748 166.807 123.537V114.958H169.475V123.744C169.475 124.802 169.598 125.638 169.843 126.251C170.104 126.864 170.464 127.301 170.924 127.562C171.384 127.823 171.913 127.953 172.511 127.953C173.125 127.953 173.661 127.823 174.121 127.562C174.597 127.301 174.965 126.864 175.225 126.251C175.501 125.638 175.639 124.802 175.639 123.744V114.958H178.192V123.537C178.192 124.748 178.062 125.783 177.801 126.642C177.541 127.501 177.157 128.198 176.651 128.735C176.161 129.272 175.563 129.663 174.857 129.908C174.167 130.153 173.385 130.276 172.511 130.276ZM180.113 130L184.391 122.249L180.389 114.958H183.356L185.012 118.293C185.211 118.63 185.395 118.983 185.564 119.351C185.733 119.719 185.932 120.133 186.162 120.593H186.254C186.438 120.133 186.607 119.719 186.76 119.351C186.929 118.983 187.097 118.63 187.266 118.293L188.853 114.958H191.682L187.68 122.364L191.958 130H188.991L187.151 126.458C186.952 126.059 186.752 125.668 186.553 125.285C186.369 124.886 186.162 124.457 185.932 123.997H185.84C185.656 124.457 185.472 124.886 185.288 125.285C185.104 125.668 184.92 126.059 184.736 126.458L182.942 130H180.113ZM198.771 130V114.958H202.796C204.329 114.958 205.64 115.234 206.729 115.786C207.817 116.338 208.653 117.166 209.236 118.27C209.818 119.374 210.11 120.754 210.11 122.41C210.11 124.066 209.818 125.461 209.236 126.596C208.668 127.715 207.848 128.566 206.775 129.149C205.701 129.716 204.421 130 202.934 130H198.771ZM201.439 127.838H202.612C203.624 127.838 204.482 127.646 205.188 127.263C205.908 126.864 206.453 126.266 206.821 125.469C207.189 124.672 207.373 123.652 207.373 122.41C207.373 121.183 207.189 120.179 206.821 119.397C206.453 118.615 205.908 118.04 205.188 117.672C204.482 117.304 203.624 117.12 202.612 117.12H201.439V127.838ZM213.146 130V114.958H222.208V117.212H215.814V121.053H221.219V123.307H215.814V127.746H222.438V130H213.146ZM228.121 130L223.521 114.958H226.35L228.374 122.525C228.527 123.092 228.673 123.644 228.811 124.181C228.949 124.702 229.087 125.231 229.225 125.768C229.378 126.289 229.539 126.834 229.708 127.401H229.8C229.953 126.834 230.099 126.289 230.237 125.768C230.375 125.231 230.513 124.702 230.651 124.181C230.804 123.644 230.957 123.092 231.111 122.525L233.296 114.958H236.033L231.272 130H228.121ZM237.853 130V114.958H246.915V117.212H240.521V121.053H245.926V123.307H240.521V127.746H247.145V130H237.853ZM250.229 130V114.958H252.897V127.746H259.153V130H250.229ZM266.897 130.276C265.594 130.276 264.444 129.962 263.447 129.333C262.45 128.689 261.668 127.784 261.101 126.619C260.549 125.438 260.273 124.035 260.273 122.41C260.273 120.785 260.549 119.397 261.101 118.247C261.668 117.097 262.45 116.215 263.447 115.602C264.444 114.989 265.594 114.682 266.897 114.682C268.216 114.682 269.373 114.989 270.37 115.602C271.367 116.215 272.141 117.097 272.693 118.247C273.26 119.397 273.544 120.785 273.544 122.41C273.544 124.035 273.26 125.438 272.693 126.619C272.141 127.784 271.367 128.689 270.37 129.333C269.373 129.962 268.216 130.276 266.897 130.276ZM266.897 127.953C267.694 127.953 268.377 127.731 268.944 127.286C269.527 126.826 269.979 126.182 270.301 125.354C270.623 124.511 270.784 123.529 270.784 122.41C270.784 121.291 270.623 120.332 270.301 119.535C269.979 118.722 269.527 118.101 268.944 117.672C268.377 117.227 267.694 117.005 266.897 117.005C266.115 117.005 265.433 117.227 264.85 117.672C264.267 118.101 263.815 118.722 263.493 119.535C263.171 120.332 263.01 121.291 263.01 122.41C263.01 123.529 263.171 124.511 263.493 125.354C263.815 126.182 264.267 126.826 264.85 127.286C265.433 127.731 266.115 127.953 266.897 127.953ZM276.553 130V114.958H281.291C282.41 114.958 283.407 115.104 284.281 115.395C285.155 115.686 285.845 116.169 286.351 116.844C286.857 117.519 287.11 118.439 287.11 119.604C287.11 120.708 286.857 121.62 286.351 122.341C285.86 123.062 285.178 123.598 284.304 123.951C283.445 124.304 282.472 124.48 281.383 124.48H279.221V130H276.553ZM279.221 122.341H281.176C282.295 122.341 283.123 122.111 283.66 121.651C284.212 121.191 284.488 120.509 284.488 119.604C284.488 118.653 284.197 118.002 283.614 117.649C283.047 117.281 282.203 117.097 281.084 117.097H279.221V122.341ZM289.94 130V114.958H299.002V117.212H292.608V121.053H298.013V123.307H292.608V127.746H299.232V130H289.94ZM302.316 130V114.958H307.399C308.441 114.958 309.377 115.096 310.205 115.372C311.033 115.648 311.692 116.116 312.183 116.775C312.673 117.419 312.919 118.301 312.919 119.42C312.919 120.493 312.673 121.375 312.183 122.065C311.692 122.755 311.033 123.269 310.205 123.606C309.377 123.943 308.441 124.112 307.399 124.112H304.984V130H302.316ZM304.984 121.996H307.123C308.15 121.996 308.932 121.781 309.469 121.352C310.021 120.923 310.297 120.279 310.297 119.42C310.297 118.561 310.021 117.963 309.469 117.626C308.932 117.273 308.15 117.097 307.123 117.097H304.984V121.996ZM310.527 130L306.893 123.399L308.825 121.812L313.517 130H310.527Z" fill="white"/>
<path d="M49.9674 48.4997C76.4674 -17.5004 138.467 42.0001 108.467 102C114.967 43.9998 72.9674 21.9997 49.9674 48.4997Z" fill="white" stroke="white"/>
<path d="M67.6693 130.224C-2.87733 139.248 18.8647 56.1123 85.8774 53.0689C32.0633 75.6583 33.3204 123.055 67.6693 130.224Z" fill="#FCB51F" stroke="#FCB51F"/>
<path d="M130.847 72.7084C175.994 127.663 94.0203 153.444 55.8176 98.3034C103.559 131.874 143.035 105.613 130.847 72.7084Z" fill="#534BAE" stroke="#534BAE"/>
</svg>
